<svg xmlns="http://www.w3.org/2000/svg" width="512" height="512" viewBox="0 0 512 512" version="1.1"><path d="M 167.821 94.336 C 161.429 96.138, 156.656 100.028, 153.852 105.723 L 151.500 110.500 151.500 256.500 L 151.500 402.500 153.721 406.653 C 156.448 411.753, 161.852 416.339, 166.922 417.859 C 169.650 418.676, 195.440 419, 257.744 419 C 330.333 419, 345.315 418.766, 348.128 417.591 C 357.250 413.779, 361.459 407.092, 361.437 396.448 C 361.418 387.391, 358.221 381.390, 351.223 377.277 L 346.500 374.500 273.768 374.225 L 201.036 373.950 200.768 242.725 C 200.515 118.754, 200.400 111.279, 198.697 107.500 C 193.637 96.274, 180.624 90.726, 167.821 94.336" stroke="none" fill="#fbfafb" fill-rule="evenodd"/><path d="M 37.688 1.502 C 20.336 6.271, 5.006 21.977, 1.085 39 C 0.388 42.029, 0.045 112.963, 0.036 256 C 0.023 487.671, -0.346 472.768, 5.691 484.869 C 11.446 496.407, 26.243 507.977, 39 510.915 C 45.263 512.357, 466.737 512.357, 473 510.915 C 490.104 506.975, 507.615 489.632, 510.536 473.739 C 510.916 471.670, 511.626 469.731, 512.113 469.430 C 512.624 469.114, 513 378.229, 513 254.882 C 513 130.040, 512.629 41.111, 512.110 41.432 C 511.620 41.735, 510.910 40.299, 510.532 38.241 C 507.636 22.482, 491.303 6.093, 473.869 1.453 C 466.164 -0.598, 45.154 -0.551, 37.688 1.502 M 0.491 256 C 0.491 373.975, 0.607 422.238, 0.750 363.250 C 0.892 304.263, 0.892 207.738, 0.750 148.750 C 0.607 89.763, 0.491 138.025, 0.491 256 M 167.821 94.336 C 161.429 96.138, 156.656 100.028, 153.852 105.723 L 151.500 110.500 151.500 256.500 L 151.500 402.500 153.721 406.653 C 156.448 411.753, 161.852 416.339, 166.922 417.859 C 169.650 418.676, 195.440 419, 257.744 419 C 330.333 419, 345.315 418.766, 348.128 417.591 C 357.250 413.779, 361.459 407.092, 361.437 396.448 C 361.418 387.391, 358.221 381.390, 351.223 377.277 L 346.500 374.500 273.768 374.225 L 201.036 373.950 200.768 242.725 C 200.515 118.754, 200.400 111.279, 198.697 107.500 C 193.637 96.274, 180.624 90.726, 167.821 94.336" stroke="none" fill="#8c2ce4" fill-rule="evenodd"/></svg>